<svg xmlns="http://www.w3.org/2000/svg" viewBox="0 0 77.89 77.89"><defs><style>.cls-1{fill:#fff;}</style></defs><g id="Layer_2" data-name="Layer 2"><g id="Layer_8" data-name="Layer 8"><rect width="77.89" height="77.89"/><path class="cls-1" d="M33.22,22.25c0,4.17-3,6.7-8,6.7H20.46v5.81H17.72V15.56h7.49C30.2,15.56,33.22,18.08,33.22,22.25Zm-2.74,0c0-2.74-1.84-4.3-5.35-4.3H20.46v8.61h4.67C28.64,26.56,30.48,25,30.48,22.25Z"/><path class="cls-1" d="M20.46,43.8v6.7h9.63v2.36H20.46v7.76H17.72V41.42H31.27V43.8Z"/><path class="cls-1" d="M44.07,26.48V15.56h2.74V26.37c0,4.25,1.95,6.17,5.4,6.17s5.43-1.92,5.43-6.17V15.56H60.3V26.48c0,5.57-3,8.5-8.11,8.5S44.07,32.05,44.07,26.48Z"/><path class="cls-1" d="M49.11,43.8v6.7h9.63v2.36H49.11v7.76H46.37V41.42H59.92V43.8Z"/><rect class="cls-1" x="61.09" y="61.03" width="2.76" height="20.68" transform="translate(133.84 8.9) rotate(90)"/><rect class="cls-1" x="70.05" y="52.06" width="2.76" height="20.68" transform="translate(142.86 124.81) rotate(180)"/><rect class="cls-1" x="14.2" y="-3.79" width="2.76" height="20.68" transform="translate(9.03 22.14) rotate(-90)"/><rect class="cls-1" x="5.24" y="5.18" width="2.76" height="20.68"/></g></g></svg>